<svg width="48" height="48" fill="none" xmlns="http://www.w3.org/2000/svg"><g clip-path="url(#a)" fill="#000"><path fill-rule="evenodd" clip-rule="evenodd" d="M17 8h-5a4 4 0 0 0-4 4v5a4 4 0 0 0 4 4h5a4 4 0 0 0 4-4v-5a4 4 0 0 0-4-4Zm2 9a2 2 0 0 1-2 2h-5a2 2 0 0 1-2-2v-5a2 2 0 0 1 2-2h5a2 2 0 0 1 2 2v5ZM12 27h5a4 4 0 0 1 4 4v5a4 4 0 0 1-4 4h-5a4 4 0 0 1-4-4v-5a4 4 0 0 1 4-4Zm6.414 10.414A2 2 0 0 0 19 36v-5a2 2 0 0 0-2-2h-5a2 2 0 0 0-2 2v5a2 2 0 0 0 2 2h5a2 2 0 0 0 1.414-.586Z"/><path d="M40 12a1 1 0 0 1-1 1H26a1 1 0 1 1 0-2h13a1 1 0 0 1 1 1ZM39.707 17.707A1 1 0 0 0 39 16H26a1 1 0 1 0 0 2h13a1 1 0 0 0 .707-.293ZM40 31a1 1 0 0 1-1 1H26a1 1 0 1 1 0-2h13a1 1 0 0 1 1 1ZM39.707 36.707A1 1 0 0 0 39 35H26a1 1 0 1 0 0 2h13a1 1 0 0 0 .707-.293Z"/><path fill-rule="evenodd" clip-rule="evenodd" d="M44 0H4a4 4 0 0 0-4 4v40a4 4 0 0 0 4 4h40a4 4 0 0 0 4-4V4a4 4 0 0 0-4-4Zm2 44a2 2 0 0 1-2 2H4a2 2 0 0 1-2-2V4a2 2 0 0 1 2-2h40a2 2 0 0 1 2 2v40Z"/></g><defs><clipPath id="a"><path fill="#fff" d="M0 0h48v48H0z"/></clipPath></defs></svg>