<svg width="48" height="48" fill="none" xmlns="http://www.w3.org/2000/svg"><path fill-rule="evenodd" clip-rule="evenodd" d="M21.778 23.674a4 4 0 1 1 4.444 6.653 4 4 0 0 1-4.444-6.653Zm1.11 4.989a2 2 0 1 0 2.223-3.327 2 2 0 0 0-2.222 3.327Z" fill="#000"/><path fill-rule="evenodd" clip-rule="evenodd" d="M32 11h12a4 4 0 0 1 4 4v24a4 4 0 0 1-4 4H4a4 4 0 0 1-4-4V15a4 4 0 0 1 4-4h12V9a4 4 0 0 1 4-4h8a4 4 0 0 1 4 4v2ZM18.586 7.586A2 2 0 0 0 18 9v2h12V9a2 2 0 0 0-2-2h-8a2 2 0 0 0-1.414.586ZM4 41h4V13H4a2 2 0 0 0-2 2v24a2 2 0 0 0 2 2Zm6 0h28V13H10v28Zm35.414-.586A2 2 0 0 0 46 39V15a2 2 0 0 0-2-2h-4v28h4a2 2 0 0 0 1.414-.586Z" fill="#000"/></svg>