<svg width="48" height="48" fill="none" xmlns="http://www.w3.org/2000/svg"><g clip-path="url(#a)" fill="#000"><path d="M5.831 5.556a1 1 0 1 0-1.663-1.112 1 1 0 0 0 1.663 1.112ZM9.831 5.556a1 1 0 1 0-1.663-1.112 1 1 0 0 0 1.663 1.112ZM14 5a1 1 0 1 1-2.001 0A1 1 0 0 1 14 5Z"/><path fill-rule="evenodd" clip-rule="evenodd" d="M4 0h40a4 4 0 0 1 4 4v40a4 4 0 0 1-4 4H4a4 4 0 0 1-4-4V4a4 4 0 0 1 4-4Zm41.414 45.414A2 2 0 0 0 46 44V10H2v34a2 2 0 0 0 2 2h40a2 2 0 0 0 1.414-.586ZM2 4v4h44V4a2 2 0 0 0-2-2H4a2 2 0 0 0-2 2Z"/></g><defs><clipPath id="a"><path fill="#fff" d="M0 0h48v48H0z"/></clipPath></defs></svg>