<svg width="48" height="48" fill="none" xmlns="http://www.w3.org/2000/svg"><g clip-path="url(#a)" fill="#000"><path d="M44 0H4a4 4 0 0 0-4 4v40a4 4 0 0 0 4 4h40a4 4 0 0 0 4-4V4a4 4 0 0 0-4-4ZM2 4a2 2 0 0 1 2-2h19v21H2V4Zm2 42a2 2 0 0 1-2-2V25h21v21H4Zm42-2a2 2 0 0 1-2 2H25V25h21v19ZM25 23V2h19a2 2 0 0 1 2 2v19H25Z"/><path d="m13.91 12.5 1.77-1.76a1.002 1.002 0 0 0-.705-1.71 1 1 0 0 0-.705.29l-1.77 1.77-1.77-1.77a1 1 0 1 0-1.41 1.42l1.76 1.76-1.76 1.77a1 1 0 0 0 1.41 1.42l1.77-1.77 1.77 1.77a1 1 0 1 0 1.41-1.42l-1.77-1.77ZM36.5 11.5V9a1 1 0 0 0-2 0v2.5H32a1 1 0 0 0 0 2h2.5V16a1 1 0 0 0 2 0v-2.5H39a1 1 0 0 0 0-2h-2.5ZM17 35.49a1 1 0 0 1-1 1H9a1 1 0 0 1 0-2h7a1 1 0 0 1 1 1ZM40 33.49a1 1 0 0 1-1 1h-7a1 1 0 0 1 0-2h7a1 1 0 0 1 1 1ZM40 37.49a1 1 0 0 1-1 1h-7a1 1 0 0 1 0-2h7a1 1 0 0 1 1 1Z"/></g><defs><clipPath id="a"><path fill="#fff" d="M0 0h48v48H0z"/></clipPath></defs></svg>