<svg width="48" height="48" fill="none" xmlns="http://www.w3.org/2000/svg"><g clip-path="url(#a)" fill="#000"><path d="M15.832 21.556a1 1 0 1 0-1.665-1.112 1 1 0 0 0 1.665 1.112ZM21.831 21.556a1 1 0 1 0-1.664-1.112 1 1 0 0 0 1.664 1.112ZM28 21a1 1 0 1 1-2.002 0A1 1 0 0 1 28 21ZM9.831 27.556a1 1 0 1 0-1.663-1.112 1 1 0 0 0 1.663 1.112ZM16 27a1 1 0 1 1-2.002 0A1 1 0 0 1 16 27ZM21.831 27.556a1 1 0 1 0-1.664-1.112 1 1 0 0 0 1.664 1.112ZM28 27a1 1 0 1 1-2.002 0A1 1 0 0 1 28 27ZM39.831 27.556a1 1 0 1 0-1.664-1.112 1 1 0 0 0 1.664 1.112ZM34 21a1 1 0 1 1-2.002 0A1 1 0 0 1 34 21ZM39.831 21.556a1 1 0 1 0-1.664-1.112 1 1 0 0 0 1.664 1.112ZM10 33a1 1 0 1 1-2 0 1 1 0 0 1 2 0ZM15.832 33.556a1 1 0 1 0-1.665-1.112 1 1 0 0 0 1.665 1.112ZM22 33a1 1 0 1 1-2.002 0A1 1 0 0 1 22 33ZM27.831 33.556a1 1 0 1 0-1.664-1.112 1 1 0 0 0 1.664 1.112ZM34 33a1 1 0 1 1-2.002 0A1 1 0 0 1 34 33ZM39.831 33.556a1 1 0 1 0-1.664-1.112 1 1 0 0 0 1.664 1.112ZM10 39a1 1 0 1 1-2 0 1 1 0 0 1 2 0ZM15.832 39.556a1 1 0 1 0-1.665-1.112 1 1 0 0 0 1.665 1.112ZM22 39a1 1 0 1 1-2.002 0A1 1 0 0 1 22 39ZM27.831 39.556a1 1 0 1 0-1.664-1.112 1 1 0 0 0 1.664 1.112Z"/><path fill-rule="evenodd" clip-rule="evenodd" d="M33 24a3 3 0 1 0 0 6 3 3 0 0 0 0-6Zm0 4a1 1 0 1 1 0-2 1 1 0 0 1 0 2Z"/><path fill-rule="evenodd" clip-rule="evenodd" d="M42 4h2a4 4 0 0 1 4 4v36a4 4 0 0 1-4 4H4a4 4 0 0 1-4-4V8a4 4 0 0 1 4-4h2V3a3 3 0 1 1 6 0v1h24V3a3 3 0 1 1 6 0v1Zm-3.707-1.707A1 1 0 0 0 38 3v4a1 1 0 1 0 2 0V3a1 1 0 0 0-1.707-.707ZM8 3v4a1 1 0 1 0 2 0V3a1 1 0 1 0-2 0Zm37.414 42.414A2 2 0 0 0 46 44V14H2v30a2 2 0 0 0 2 2h40a2 2 0 0 0 1.414-.586ZM2 12h44V8a2 2 0 0 0-2-2h-2v1a3 3 0 1 1-6 0V6H12v1a3 3 0 1 1-6 0V6H4a2 2 0 0 0-2 2v4Z"/></g><defs><clipPath id="a"><path fill="#fff" d="M0 0h48v48H0z"/></clipPath></defs></svg>