<svg width="48" height="48" fill="none" xmlns="http://www.w3.org/2000/svg"><path d="M40 16a1 1 0 1 0 2 0 1 1 0 0 0-2 0Z" fill="#000"/><path fill-rule="evenodd" clip-rule="evenodd" d="M18.444 18.685a10 10 0 1 1 11.112 16.63 10 10 0 0 1-11.112-16.63Zm1.111 14.967a8 8 0 1 0 8.89-13.304 8 8 0 0 0-8.89 13.304Z" fill="#000"/><path fill-rule="evenodd" clip-rule="evenodd" d="M44 9H32V7a4 4 0 0 0-4-4h-8a4 4 0 0 0-4 4v2H4a4 4 0 0 0-4 4v28a4 4 0 0 0 4 4h40a4 4 0 0 0 4-4V13a4 4 0 0 0-4-4ZM18 7a2 2 0 0 1 2-2h8a2 2 0 0 1 2 2v2H18V7Zm28 34a2 2 0 0 1-2 2H4a2 2 0 0 1-2-2V13a2 2 0 0 1 2-2h40a2 2 0 0 1 2 2v28Z" fill="#000"/></svg>