<svg width="48" height="48" fill="none" xmlns="http://www.w3.org/2000/svg"><g clip-path="url(#a)" fill-rule="evenodd" clip-rule="evenodd" fill="#000"><path d="M38.41 17a4 4 0 0 1 1.59.33A4 4 0 0 1 42.45 21c0 10.49-7.96 19-18.45 19A19 19 0 0 1 5 21a4 4 0 0 1 4-4h29.41ZM23 19h-2v3a1 1 0 0 0 2 0v-3Zm4 0h-2v3a1 1 0 0 0 2 0v-3Zm-3 19c8.09 0 14.32-5.71 16-13.33.282-1.204.433-2.434.45-3.67a2 2 0 0 0-2-2H29v3a3 3 0 0 1-5 2.22A3 3 0 0 1 19 22v-3H9a2 2 0 0 0-2 2 17 17 0 0 0 17 17ZM33 14a3 3 0 1 0 0-5.999A3 3 0 0 0 33 14Zm0-4a1 1 0 1 1 0 2.002A1 1 0 0 1 33 10ZM16.667 13.494a3 3 0 1 1-3.333-4.987 3 3 0 0 1 3.333 4.987Zm-1.111-3.325a1 1 0 1 0-1.112 1.664 1 1 0 0 0 1.112-1.665Z"/><path d="M4 0h40a4 4 0 0 1 4 4v40a4 4 0 0 1-4 4H4a4 4 0 0 1-4-4V4a4 4 0 0 1 4-4Zm41.414 45.414A2 2 0 0 0 46 44V4a2 2 0 0 0-2-2H4a2 2 0 0 0-2 2v40a2 2 0 0 0 2 2h40a2 2 0 0 0 1.414-.586Z"/></g><defs><clipPath id="a"><path fill="#fff" d="M0 0h48v48H0z"/></clipPath></defs></svg>