<svg width="48" height="48" fill="none" xmlns="http://www.w3.org/2000/svg"><g clip-path="url(#a)" fill="#000"><path d="M4 24a1 1 0 1 0 2 0 1 1 0 0 0-2 0ZM42 24a1 1 0 1 0 2 0 1 1 0 0 0-2 0ZM23.169 43.556a1 1 0 1 1 1.662-1.111 1 1 0 0 1-1.662 1.11Z"/><path fill-rule="evenodd" clip-rule="evenodd" d="M27.86 23H35a1 1 0 0 1 0 2h-7.14A4 4 0 1 1 23 20.14V5a1 1 0 0 1 2 0v15.14A4 4 0 0 1 27.86 23Zm-4.971 2.663a2 2 0 1 0 2.222-3.324 2 2 0 0 0-2.222 3.324Z"/><path fill-rule="evenodd" clip-rule="evenodd" d="M44 0H4a4 4 0 0 0-4 4v40a4 4 0 0 0 4 4h40a4 4 0 0 0 4-4V4a4 4 0 0 0-4-4Zm2 44a2 2 0 0 1-2 2H4a2 2 0 0 1-2-2V4a2 2 0 0 1 2-2h40a2 2 0 0 1 2 2v40Z"/></g><defs><clipPath id="a"><path fill="#fff" d="M0 0h48v48H0z"/></clipPath></defs></svg>