<svg width="48" height="48" fill="none" xmlns="http://www.w3.org/2000/svg"><g clip-path="url(#a)" fill-rule="evenodd" clip-rule="evenodd" fill="#000"><path d="M27.46 14.623A10 10 0 0 1 32 18a8 8 0 1 1 0 16H14a6 6 0 1 1 0-12h.21a9.999 9.999 0 0 1 13.25-7.377ZM14 32h18a6 6 0 1 0 0-12c-.335.005-.67.035-1 .09a8 8 0 0 0-14.84 2.32A8.243 8.243 0 0 0 16 24v.57a4.002 4.002 0 0 0-5.978 4.221A4 4 0 0 0 14 32Z"/><path d="M4 0h40a4 4 0 0 1 4 4v40a4 4 0 0 1-4 4H4a4 4 0 0 1-4-4V4a4 4 0 0 1 4-4Zm41.414 45.414A2 2 0 0 0 46 44V4a2 2 0 0 0-2-2H4a2 2 0 0 0-2 2v40a2 2 0 0 0 2 2h40a2 2 0 0 0 1.414-.586Z"/></g><defs><clipPath id="a"><path fill="#fff" d="M0 0h48v48H0z"/></clipPath></defs></svg>