<svg width="48" height="48" fill="none" xmlns="http://www.w3.org/2000/svg"><g clip-path="url(#a)" fill="#000"><path d="M6 24a1 1 0 1 1-2 0 1 1 0 0 1 2 0ZM44 24a1 1 0 1 1-2 0 1 1 0 0 1 2 0ZM24 44a1 1 0 1 0 0-2 1 1 0 0 0 0 2ZM24 6a1 1 0 1 0 0-2 1 1 0 0 0 0 2Z"/><path fill-rule="evenodd" clip-rule="evenodd" d="M35.31 33.86a.575.575 0 0 1 0 .14l.06.16a1.452 1.452 0 0 1 0 .21c.005.057.005.113 0 .17a1.723 1.723 0 0 1-.07.21v.11c-.08.106-.174.2-.28.28h-.11l-.21.07h-.38l-.16-.06a.874.874 0 0 1-.15 0L20.6 27.41l-7.74-13.42a.575.575 0 0 1 0-.14l-.06-.16a1.472 1.472 0 0 1 0-.21 1.005 1.005 0 0 1 0-.17c.019-.071.042-.142.07-.21v-.11c.08-.106.174-.2.28-.28h.11l.21-.07h.38l.16.06c.05-.004.1-.004.15 0l13.41 7.74 7.74 13.42ZM16.33 16.27 21.95 26l9.72 5.61-5.62-9.73-9.72-5.61Z"/><path fill-rule="evenodd" clip-rule="evenodd" d="M4 0h40a4 4 0 0 1 4 4v40a4 4 0 0 1-4 4H4a4 4 0 0 1-4-4V4a4 4 0 0 1 4-4Zm41.414 45.414A2 2 0 0 0 46 44V4a2 2 0 0 0-2-2H4a2 2 0 0 0-2 2v40a2 2 0 0 0 2 2h40a2 2 0 0 0 1.414-.586Z"/></g><defs><clipPath id="a"><path fill="#fff" d="M0 0h48v48H0z"/></clipPath></defs></svg>