<svg width="48" height="48" fill="none" xmlns="http://www.w3.org/2000/svg"><g clip-path="url(#a)" fill="#000"><path d="M44 0H4a4 4 0 0 0-4 4v40a4 4 0 0 0 4 4h40a4 4 0 0 0 4-4V4a4 4 0 0 0-4-4Zm2 44a2 2 0 0 1-2 2H4a2 2 0 0 1-2-2V4a2 2 0 0 1 2-2h40a2 2 0 0 1 2 2v40Z"/><path d="M38 12a1 1 0 0 1-1 1H11a1 1 0 0 1 0-2h26a1 1 0 0 1 1 1ZM32 36a1 1 0 0 1-1 1H11a1 1 0 0 1 0-2h20a1 1 0 0 1 1 1ZM38 28a1 1 0 0 1-1 1H11a1 1 0 0 1 0-2h26a1 1 0 0 1 1 1ZM38 20a1 1 0 0 1-1 1H11a1 1 0 0 1 0-2h26a1 1 0 0 1 1 1Z"/></g><defs><clipPath id="a"><path fill="#fff" d="M0 0h48v48H0z"/></clipPath></defs></svg>