<svg width="48" height="48" fill="none" xmlns="http://www.w3.org/2000/svg"><g clip-path="url(#a)" fill-rule="evenodd" clip-rule="evenodd" fill="#000"><path d="M35.86 23H39a1 1 0 0 1 0 2h-3.14a4 4 0 0 1-7.72 0H9a1 1 0 0 1 0-2h19.14a4 4 0 0 1 7.72 0Zm-2.632 2.67c.21-.187.377-.415.492-.67a1.999 1.999 0 0 0-2.227-3.081A2 2 0 0 0 30.28 23a1.999 1.999 0 0 0 2.227 3.081 2 2 0 0 0 .721-.412ZM39 11H19.86a4 4 0 0 0-7.72 0H9a1 1 0 0 0 0 2h3.14a4 4 0 0 0 7.72 0H39a1 1 0 0 0 0-2Zm-21.28 2a1.999 1.999 0 1 1-3.44-2 1.999 1.999 0 1 1 3.44 2ZM19.86 35H39a1 1 0 0 1 0 2H19.86a4 4 0 0 1-7.72 0H9a1 1 0 0 1 0-2h3.14a4 4 0 0 1 7.72 0Zm-2.632 2.67c.21-.187.377-.415.492-.67a1.999 1.999 0 0 0-2.227-3.081A2 2 0 0 0 14.28 35a1.999 1.999 0 0 0 2.227 3.081 2 2 0 0 0 .721-.412Z"/><path d="M4 0h40a4 4 0 0 1 4 4v40a4 4 0 0 1-4 4H4a4 4 0 0 1-4-4V4a4 4 0 0 1 4-4Zm41.414 45.414A2 2 0 0 0 46 44V4a2 2 0 0 0-2-2H4a2 2 0 0 0-2 2v40a2 2 0 0 0 2 2h40a2 2 0 0 0 1.414-.586Z"/></g><defs><clipPath id="a"><path fill="#fff" d="M0 0h48v48H0z"/></clipPath></defs></svg>