<svg width="48" height="48" fill="none" xmlns="http://www.w3.org/2000/svg"><g clip-path="url(#a)" fill="#000"><path d="M35 38H13a1 1 0 0 0 0 2h22a1 1 0 0 0 0-2ZM13 32h22a1 1 0 0 1 0 2H13a1 1 0 0 1 0-2ZM35 26H13a1 1 0 0 0 0 2h22a1 1 0 0 0 0-2ZM13 20h22a1 1 0 0 1 0 2H13a1 1 0 0 1 0-2Z"/><path fill-rule="evenodd" clip-rule="evenodd" d="M41.71 12.92 29.09.3a1 1 0 0 0-.7-.29H10a4 4 0 0 0-4 4v40a4 4 0 0 0 4 4h28a4 4 0 0 0 4-4V13.62a1 1 0 0 0-.29-.7ZM30 4l8 8h-8V4Zm10 40a2 2 0 0 1-2 2H10a2 2 0 0 1-2-2V4a2 2 0 0 1 2-2h18v12h12v30Z"/></g><defs><clipPath id="a"><path fill="#fff" d="M0 0h48v48H0z"/></clipPath></defs></svg>