<svg width="48" height="48" fill="none" xmlns="http://www.w3.org/2000/svg"><g clip-path="url(#a)" fill-rule="evenodd" clip-rule="evenodd" fill="#000"><path d="M22.333 21.506a3 3 0 1 1 3.334 4.989 3 3 0 0 1-3.334-4.99Zm1.111 3.325a1 1 0 1 0 1.111-1.662 1 1 0 0 0-1.11 1.662Z"/><path d="M24 16.5a18.91 18.91 0 0 0-13.77 5.94c-.47.497-.914 1.017-1.33 1.56.416.543.86 1.063 1.33 1.56A18.913 18.913 0 0 0 24 31.5a18.06 18.06 0 0 0 13.4-5.84c.48-.528.93-1.082 1.35-1.66-.42-.578-.87-1.132-1.35-1.66A18.06 18.06 0 0 0 24 16.5Zm0 13A16.931 16.931 0 0 1 11.5 24 16.93 16.93 0 0 1 24 18.5 15.85 15.85 0 0 1 36.13 24 15.85 15.85 0 0 1 24 29.5Z"/><path d="M44 0H4a4 4 0 0 0-4 4v40a4 4 0 0 0 4 4h40a4 4 0 0 0 4-4V4a4 4 0 0 0-4-4Zm2 44a2 2 0 0 1-2 2H4a2 2 0 0 1-2-2V4a2 2 0 0 1 2-2h40a2 2 0 0 1 2 2v40Z"/></g><defs><clipPath id="a"><path fill="#fff" d="M0 0h48v48H0z"/></clipPath></defs></svg>