<svg width="48" height="48" fill="none" xmlns="http://www.w3.org/2000/svg"><g clip-path="url(#a)" fill="#000"><path fill-rule="evenodd" clip-rule="evenodd" d="M4 0a4 4 0 1 0 0 8 4 4 0 0 0 0-8Zm0 6a2 2 0 1 1 0-4 2 2 0 0 1 0 4Z"/><path d="M9.91 3h28.18a5.6 5.6 0 0 0 0 2H9.91a5.6 5.6 0 0 0 0-2ZM43 38.09V9.91a5.6 5.6 0 0 0 2 0v28.18a5.6 5.6 0 0 0-2 0ZM38.09 43H9.91a5.6 5.6 0 0 1 0 2h28.18a5.6 5.6 0 0 1 0-2ZM5 9.91v28.18a5.6 5.6 0 0 0-2 0V9.91a5.6 5.6 0 0 0 2 0Z"/><path fill-rule="evenodd" clip-rule="evenodd" d="M46.222 7.326A4 4 0 1 1 41.778.674a4 4 0 0 1 4.444 6.652Zm-1.11-4.989a2 2 0 1 0-2.223 3.326 2 2 0 0 0 2.222-3.326ZM44 40a4 4 0 1 0 0 8 4 4 0 0 0 0-8Zm0 6a2 2 0 1 1 0-4 2 2 0 0 1 0 4ZM1.778 40.674a4 4 0 1 1 4.444 6.652 4 4 0 0 1-4.444-6.652Zm1.11 4.989a2 2 0 1 0 2.223-3.327 2 2 0 0 0-2.222 3.327Z"/></g><defs><clipPath id="a"><path fill="#fff" d="M0 0h48v48H0z"/></clipPath></defs></svg>