<svg width="48" height="48" fill="none" xmlns="http://www.w3.org/2000/svg"><path fill-rule="evenodd" clip-rule="evenodd" d="M5 1h13a4 4 0 0 1 4 4v13a4 4 0 0 1-4 4H5a4 4 0 0 1-4-4V5a4 4 0 0 1 4-4Zm14.414 18.414A2 2 0 0 0 20 18V5a2 2 0 0 0-2-2H5a2 2 0 0 0-2 2v13a2 2 0 0 0 2 2h13a2 2 0 0 0 1.414-.586ZM30 1h13a4 4 0 0 1 4 4v13a4 4 0 0 1-4 4H30a4 4 0 0 1-4-4V5a4 4 0 0 1 4-4Zm14.414 18.414A2 2 0 0 0 45 18V5a2 2 0 0 0-2-2H30a2 2 0 0 0-2 2v13a2 2 0 0 0 2 2h13a2 2 0 0 0 1.414-.586ZM18 26H5a4 4 0 0 0-4 4v13a4 4 0 0 0 4 4h13a4 4 0 0 0 4-4V30a4 4 0 0 0-4-4Zm2 17a2 2 0 0 1-2 2H5a2 2 0 0 1-2-2V30a2 2 0 0 1 2-2h13a2 2 0 0 1 2 2v13ZM30 26h13a4 4 0 0 1 4 4v13a4 4 0 0 1-4 4H30a4 4 0 0 1-4-4V30a4 4 0 0 1 4-4Zm14.414 18.414A2 2 0 0 0 45 43V30a2 2 0 0 0-2-2H30a2 2 0 0 0-2 2v13a2 2 0 0 0 2 2h13a2 2 0 0 0 1.414-.586Z" fill="#000"/></svg>