<svg width="48" height="48" fill="none" xmlns="http://www.w3.org/2000/svg"><g clip-path="url(#a)" fill-rule="evenodd" clip-rule="evenodd" fill="#000"><path d="M12.5 8a4.5 4.5 0 1 0 4.5 4.5A4.51 4.51 0 0 0 12.5 8Zm0 7a2.5 2.5 0 1 1 0-5 2.5 2.5 0 0 1 0 5ZM12.5 31a4.5 4.5 0 1 0 4.5 4.5 4.51 4.51 0 0 0-4.5-4.5Zm0 7a2.5 2.5 0 1 1 0-5 2.5 2.5 0 0 1 0 5ZM33 31.758A4.5 4.5 0 0 1 35.5 31a4.51 4.51 0 0 1 4.5 4.5 4.5 4.5 0 1 1-7-3.742Zm1.111 5.82a2.5 2.5 0 1 0 2.778-4.157 2.5 2.5 0 0 0-2.778 4.158ZM33 8.758A4.5 4.5 0 0 1 35.5 8a4.51 4.51 0 0 1 4.5 4.5 4.5 4.5 0 1 1-7-3.742Zm1.111 5.82a2.5 2.5 0 1 0 2.778-4.157 2.5 2.5 0 0 0-2.778 4.158Z"/><path d="M44 0H4a4 4 0 0 0-4 4v40a4 4 0 0 0 4 4h40a4 4 0 0 0 4-4V4a4 4 0 0 0-4-4ZM2 4a2 2 0 0 1 2-2h19v21H2V4Zm2 42a2 2 0 0 1-2-2V25h21v21H4Zm42-2a2 2 0 0 1-2 2H25V25h21v19ZM25 2h19a2 2 0 0 1 2 2v19H25V2Z"/></g><defs><clipPath id="a"><path fill="#fff" d="M0 0h48v48H0z"/></clipPath></defs></svg>