<svg width="48" height="48" fill="none" xmlns="http://www.w3.org/2000/svg"><g clip-path="url(#a)" fill-rule="evenodd" clip-rule="evenodd" fill="#000"><path d="M31.44 9.418a9 9 0 0 1 8.312 5.552 9 9 0 0 1-1.952 9.81l-1.07 1.08-1.42 1.41L24 38.58 12.69 27.27l-1.42-1.41-1.07-1.08a9 9 0 1 1 12.72-12.73L24 13.13l1.08-1.08a9 9 0 0 1 6.36-2.632Zm3.87 15.022 1.08-1.07v.04a7 7 0 1 0-9.9-9.9l-1.08 1.07L24 16l-1.41-1.46-1.08-1.07a6.998 6.998 0 0 0-11.418 2.271 7 7 0 0 0 1.518 7.629l1.08 1.07 1.41 1.42 9.9 9.9 9.9-9.9 1.41-1.42Z"/><path d="M4 0h40a4 4 0 0 1 4 4v40a4 4 0 0 1-4 4H4a4 4 0 0 1-4-4V4a4 4 0 0 1 4-4Zm41.414 45.414A2 2 0 0 0 46 44V4a2 2 0 0 0-2-2H4a2 2 0 0 0-2 2v40a2 2 0 0 0 2 2h40a2 2 0 0 0 1.414-.586Z"/></g><defs><clipPath id="a"><path fill="#fff" d="M0 0h48v48H0z"/></clipPath></defs></svg>