<svg width="48" height="48" fill="none" xmlns="http://www.w3.org/2000/svg"><g clip-path="url(#a)" fill="#000"><path d="M24 36a1 1 0 1 0 0 1.999A1 1 0 0 0 24 36ZM18.343 12.343A8 8 0 0 1 24 10a8 8 0 0 1 1 15.93V34h-2V24h1a6 6 0 1 0-6-6h-2a8 8 0 0 1 2.343-5.657Z"/><path fill-rule="evenodd" clip-rule="evenodd" d="M44 0H4a4 4 0 0 0-4 4v40a4 4 0 0 0 4 4h40a4 4 0 0 0 4-4V4a4 4 0 0 0-4-4Zm2 44a2 2 0 0 1-2 2H4a2 2 0 0 1-2-2V4a2 2 0 0 1 2-2h40a2 2 0 0 1 2 2v40Z"/></g><defs><clipPath id="a"><path fill="#fff" d="M0 0h48v48H0z"/></clipPath></defs></svg>