<svg width="48" height="48" fill="none" xmlns="http://www.w3.org/2000/svg"><g clip-path="url(#a)" fill="#000"><path fill-rule="evenodd" clip-rule="evenodd" d="M12 16a4 4 0 1 0 0-8 4 4 0 0 0 0 8Zm0-6a2 2 0 1 1 0 4 2 2 0 0 1 0-4ZM9.778 20.674a4 4 0 1 1 4.444 6.652 4 4 0 0 1-4.444-6.652Zm1.11 4.989a2 2 0 1 0 2.223-3.325 2 2 0 0 0-2.222 3.325ZM12 32a4 4 0 1 0 0 8 4 4 0 0 0 0-8Zm0 6a2 2 0 1 1 0-4 2 2 0 0 1 0 4Z"/><path d="M39.707 24.707A1 1 0 0 0 39 23H21a1 1 0 0 0 0 2h18a1 1 0 0 0 .707-.293ZM40 12a1 1 0 0 1-1 1H21a1 1 0 0 1 0-2h18a1 1 0 0 1 1 1ZM39.707 36.707A1 1 0 0 0 39 35H21a1 1 0 0 0 0 2h18a1 1 0 0 0 .707-.293Z"/><path fill-rule="evenodd" clip-rule="evenodd" d="M44 0H4a4 4 0 0 0-4 4v40a4 4 0 0 0 4 4h40a4 4 0 0 0 4-4V4a4 4 0 0 0-4-4Zm2 44a2 2 0 0 1-2 2H4a2 2 0 0 1-2-2V4a2 2 0 0 1 2-2h40a2 2 0 0 1 2 2v40Z"/></g><defs><clipPath id="a"><path fill="#fff" d="M0 0h48v48H0z"/></clipPath></defs></svg>