<svg width="48" height="48" fill="none" xmlns="http://www.w3.org/2000/svg"><path fill-rule="evenodd" clip-rule="evenodd" d="M9.778 16.674a4 4 0 1 1 4.444 6.652 4 4 0 0 1-4.444-6.652Zm1.11 4.989a2 2 0 1 0 2.223-3.325 2 2 0 0 0-2.222 3.325ZM38.222 23.326a4 4 0 1 1-4.444-6.653 4 4 0 0 1 4.444 6.653Zm-1.11-4.989a2 2 0 1 0-2.223 3.325 2 2 0 0 0 2.222-3.325ZM24 24a4 4 0 1 0 0-8 4 4 0 0 0 0 8Zm0-6a2 2 0 1 1 0 4 2 2 0 0 1 0-4Z" fill="#000"/><path fill-rule="evenodd" clip-rule="evenodd" d="M4 4h40a4 4 0 0 1 4 4v24a4 4 0 0 1-4 4H29.31l-5.33 8-5.33-8H4a4 4 0 0 1-4-4V8a4 4 0 0 1 4-4Zm41.414 29.414A2 2 0 0 0 46 32V8a2 2 0 0 0-2-2H4a2 2 0 0 0-2 2v24a2 2 0 0 0 2 2h16l1.33 2L24 40l2.67-4L28 34h16a2 2 0 0 0 1.414-.586Z" fill="#000"/></svg>