<svg width="48" height="48" fill="none" xmlns="http://www.w3.org/2000/svg"><g clip-path="url(#a)" fill="#000"><path d="M7 38h12a1 1 0 0 1 0 2H7a1 1 0 0 1 0-2ZM19 32H7a1 1 0 0 0 0 2h12a1 1 0 0 0 0-2ZM25 38h12a1 1 0 0 1 0 2H25a1 1 0 0 1 0-2ZM37 32H25a1 1 0 0 0 0 2h12a1 1 0 0 0 0-2ZM25 26h12a1 1 0 0 1 0 2H25a1 1 0 0 1 0-2Z"/><path fill-rule="evenodd" clip-rule="evenodd" d="M25.86 11a4 4 0 0 0-7.72 0 3.639 3.639 0 0 0 0 2 4 4 0 0 0 7.72 0 3.64 3.64 0 0 0 0-2Zm-2.14 2a1.93 1.93 0 1 1 .28-1c-.004.352-.1.697-.28 1Z"/><path d="M33.707 12.707A1 1 0 0 1 33 13h-5.14a3.639 3.639 0 0 0 0-2H33a1 1 0 0 1 .707 1.707ZM11 13h5.14a3.639 3.639 0 0 1 0-2H11a1 1 0 0 0 0 2Z"/><path fill-rule="evenodd" clip-rule="evenodd" d="M20 28H6v-8h14v8Zm-2-6H8v4h10v-4Z"/><path d="M37 20H25a1 1 0 0 0 0 2h12a1 1 0 0 0 0-2Z"/><path fill-rule="evenodd" clip-rule="evenodd" d="M4 0h36a4 4 0 0 1 4 4v40a4 4 0 0 1-4 4H4a4 4 0 0 1-4-4V4a4 4 0 0 1 4-4Zm37.414 45.414A2 2 0 0 0 42 44V4a2 2 0 0 0-2-2H4a2 2 0 0 0-2 2v40a2 2 0 0 0 2 2h36a2 2 0 0 0 1.414-.586Z"/><path d="M46 44V4a4 4 0 0 1 2 3.45v33.1A4 4 0 0 1 46 44Z"/></g><defs><clipPath id="a"><path fill="#fff" d="M0 0h48v48H0z"/></clipPath></defs></svg>