<svg width="48" height="48" fill="none" xmlns="http://www.w3.org/2000/svg"><g clip-path="url(#a)" fill="#000"><path fill-rule="evenodd" clip-rule="evenodd" d="M16 20a4 4 0 1 0 0-8 4 4 0 0 0 0 8Zm0-6a2 2 0 1 1 0 4 2 2 0 0 1 0-4ZM29.778 28.674a4 4 0 1 1 4.444 6.653 4 4 0 0 1-4.444-6.653Zm1.11 4.989a2 2 0 1 0 2.223-3.326 2 2 0 0 0-2.222 3.326Z"/><path d="M36.949 11.595a1 1 0 0 0-.219-.325 1.002 1.002 0 0 0-1.42 0l-24 24a1.004 1.004 0 1 0 1.42 1.42l24-24a1.002 1.002 0 0 0 .219-1.095Z"/><path fill-rule="evenodd" clip-rule="evenodd" d="M4 0a4 4 0 0 0-4 4v40a4 4 0 0 0 4 4h40a4 4 0 0 0 4-4V4a4 4 0 0 0-4-4H4Zm42 44a2 2 0 0 1-2 2H4a2 2 0 0 1-2-2V4a2 2 0 0 1 2-2h40a2 2 0 0 1 2 2v40Z"/></g><defs><clipPath id="a"><path fill="#fff" d="M0 0h48v48H0z"/></clipPath></defs></svg>