<svg width="48" height="48" fill="none" xmlns="http://www.w3.org/2000/svg"><path fill-rule="evenodd" clip-rule="evenodd" d="M31.5 21a4.5 4.5 0 1 0-4.5-4.5 4.51 4.51 0 0 0 4.5 4.5Zm0-7a2.5 2.5 0 1 1 0 5 2.5 2.5 0 0 1 0-5Z" fill="#000"/><path d="M33.031 24.064c.124.052.236.13.329.226l7.02 7.09a1 1 0 1 1-1.41 1.42l-6.35-6.35-4.09 4.09 2.5 2.5a1 1 0 1 1-1.41 1.41L18.29 23.13l-10.6 10.6a1.004 1.004 0 0 1-1.42-1.42L17.58 21a1 1 0 0 1 .71-.29A1 1 0 0 1 19 21l8.14 8.11 4.78-4.82a.999.999 0 0 1 1.111-.226Z" fill="#000"/><path fill-rule="evenodd" clip-rule="evenodd" d="M44 4H4a4 4 0 0 0-4 4v32a4 4 0 0 0 4 4h40a4 4 0 0 0 4-4V8a4 4 0 0 0-4-4Zm2 36a2 2 0 0 1-2 2H4a2 2 0 0 1-2-2V8a2 2 0 0 1 2-2h40a2 2 0 0 1 2 2v32Z" fill="#000"/></svg>