<svg width="48" height="48" fill="none" xmlns="http://www.w3.org/2000/svg"><g clip-path="url(#a)" fill="#000"><path d="M21 11a1 1 0 0 0-1 1v6a2 2 0 0 1-2 2h-6a1 1 0 0 0 0 2h6a4 4 0 0 0 4-4v-6a1 1 0 0 0-1-1ZM36 20h-6a2 2 0 0 1-2-2v-6a1 1 0 0 0-2 0v6a4 4 0 0 0 4 4h6a1 1 0 0 0 0-2ZM12 26h6a4 4 0 0 1 4 4v6a1 1 0 0 1-2 0v-6a2 2 0 0 0-2-2h-6a1 1 0 0 1 0-2ZM36 26h-6a4 4 0 0 0-4 4v6a1 1 0 0 0 2 0v-6a2 2 0 0 1 2-2h6a1 1 0 0 0 0-2Z"/><path fill-rule="evenodd" clip-rule="evenodd" d="M4 0h40a4 4 0 0 1 4 4v40a4 4 0 0 1-4 4H4a4 4 0 0 1-4-4V4a4 4 0 0 1 4-4Zm41.414 45.414A2 2 0 0 0 46 44V4a2 2 0 0 0-2-2H4a2 2 0 0 0-2 2v40a2 2 0 0 0 2 2h40a2 2 0 0 0 1.414-.586Z"/></g><defs><clipPath id="a"><path fill="#fff" d="M0 0h48v48H0z"/></clipPath></defs></svg>