<svg width="48" height="48" fill="none" xmlns="http://www.w3.org/2000/svg"><g clip-path="url(#a)" fill="#000"><path d="M10 0H4a4 4 0 0 0-4 4v6a1 1 0 0 0 2 0V4a2 2 0 0 1 2-2h6a1 1 0 0 0 0-2ZM38 0h6a4 4 0 0 1 4 4v6a1 1 0 0 1-2 0V4a2 2 0 0 0-2-2h-6a1 1 0 0 1 0-2ZM4 46h6a1 1 0 0 1 0 2H4a4 4 0 0 1-4-4v-6a1 1 0 0 1 2 0v6a2 2 0 0 0 2 2ZM47 37a1 1 0 0 0-1 1v6a2 2 0 0 1-2 2h-6a1 1 0 0 0 0 2h6a4 4 0 0 0 4-4v-6a1 1 0 0 0-1-1ZM21.778 27.326a4 4 0 1 0 4.444-6.653 4 4 0 0 0-4.444 6.653Z"/><path fill-rule="evenodd" clip-rule="evenodd" d="M18.444 15.685a10 10 0 1 1 11.112 16.63 10 10 0 0 1-11.112-16.63Zm1.111 14.967a8 8 0 1 0 8.89-13.304 8 8 0 0 0-8.89 13.304Z"/></g><defs><clipPath id="a"><path fill="#fff" d="M0 0h48v48H0z"/></clipPath></defs></svg>