<svg width="48" height="48" fill="none" xmlns="http://www.w3.org/2000/svg"><g clip-path="url(#a)" fill-rule="evenodd" clip-rule="evenodd" fill="#000"><path d="M27.05 25.33 38.4 36.68h.01A1 1 0 0 1 37 38.09L25.63 26.74a10.09 10.09 0 1 1 1.42-1.41Zm-12.721-.06A8 8 0 0 0 19.31 27a7.92 7.92 0 0 0 4.9-1.69 8 8 0 1 0-9.881-.04Z"/><path d="M4 0h40a4 4 0 0 1 4 4v40a4 4 0 0 1-4 4H4a4 4 0 0 1-4-4V4a4 4 0 0 1 4-4Zm41.414 45.414A2 2 0 0 0 46 44V4a2 2 0 0 0-2-2H4a2 2 0 0 0-2 2v40a2 2 0 0 0 2 2h40a2 2 0 0 0 1.414-.586Z"/></g><defs><clipPath id="a"><path fill="#fff" d="M0 0h48v48H0z"/></clipPath></defs></svg>