<svg width="48" height="48" fill="none" xmlns="http://www.w3.org/2000/svg"><g clip-path="url(#a)" fill-rule="evenodd" clip-rule="evenodd" fill="#000"><path d="M21.5 20.258A4.5 4.5 0 0 1 24 19.5a4.51 4.51 0 0 1 4.5 4.5 4.5 4.5 0 1 1-7-3.742Zm1.111 5.82a2.5 2.5 0 1 0 2.778-4.157 2.5 2.5 0 0 0-2.778 4.158Z"/><path d="M39 23h-3a11.89 11.89 0 0 0-2.79-6.74l2.15-2.16a1 1 0 1 0-1.41-1.41l-2.16 2.15a11.89 11.89 0 0 0-6.74-2.79V9a1 1 0 0 0-2 0v3.05a11.89 11.89 0 0 0-6.74 2.79l-2.16-2.15a.998.998 0 0 0-1.69.286 1 1 0 0 0 .28 1.124l2.15 2.16A11.89 11.89 0 0 0 12.1 23h-3a1 1 0 0 0 0 2h3a11.89 11.89 0 0 0 2.79 6.74l-2.15 2.16a1 1 0 0 0 0 1.41 1 1 0 0 0 1.41 0l2.16-2.15A11.89 11.89 0 0 0 23 36v3a1 1 0 1 0 2 0v-3a11.89 11.89 0 0 0 6.74-2.79l2.16 2.15a1 1 0 1 0 1.41-1.41l-2.15-2.16A11.89 11.89 0 0 0 36 25h3a1 1 0 0 0 0-2Zm-5 2a10 10 0 0 1-3.62 6.74A10 10 0 0 1 25 34c-.164 0-.328.012-.493.025-.167.012-.336.025-.507.025-.34 0-.67 0-1-.05a10 10 0 0 1-8.95-8.95v-2a10 10 0 0 1 3.62-6.74A10 10 0 0 1 23 14.1c.164 0 .328-.012.493-.025.167-.012.336-.025.507-.025.34 0 .67 0 1 .05a10 10 0 0 1 6.74 3.62A10 10 0 0 1 34 23v2Z"/><path d="M44 0H4a4 4 0 0 0-4 4v40a4 4 0 0 0 4 4h40a4 4 0 0 0 4-4V4a4 4 0 0 0-4-4Zm2 44a2 2 0 0 1-2 2H4a2 2 0 0 1-2-2V4a2 2 0 0 1 2-2h40a2 2 0 0 1 2 2v40Z"/></g><defs><clipPath id="a"><path fill="#fff" d="M0 0h48v48H0z"/></clipPath></defs></svg>