<svg width="48" height="48" fill="none" xmlns="http://www.w3.org/2000/svg"><path fill-rule="evenodd" clip-rule="evenodd" d="M29.778 34.674a4 4 0 1 1 4.444 6.653 4 4 0 0 1-4.444-6.653Zm1.11 4.989a2 2 0 1 0 2.223-3.325 2 2 0 0 0-2.222 3.325Z" fill="#000"/><path d="M30 27a1 1 0 0 0-1-1H13a1 1 0 0 0 0 2h16a1 1 0 0 0 1-1ZM13 20h22a1 1 0 0 1 0 2H13a1 1 0 0 1 0-2ZM35 14H13a1 1 0 0 0 0 2h22a1 1 0 0 0 0-2ZM13 8h22a1 1 0 0 1 0 2H13a1 1 0 0 1 0-2Z" fill="#000"/><path fill-rule="evenodd" clip-rule="evenodd" d="M10 0h28a4 4 0 0 1 4 4v40a4 4 0 0 1-4 4H10a4 4 0 0 1-4-4V4a4 4 0 0 1 4-4Zm29.414 45.414A2 2 0 0 0 40 44V4a2 2 0 0 0-2-2H10a2 2 0 0 0-2 2v40a2 2 0 0 0 2 2h28a2 2 0 0 0 1.414-.586Z" fill="#000"/></svg>