<svg width="48" height="48" fill="none" xmlns="http://www.w3.org/2000/svg"><g clip-path="url(#a)" fill="#000"><path fill-rule="evenodd" clip-rule="evenodd" d="M28.05 34.2a3.672 3.672 0 0 0-.55-.8l-.07-.09a3.426 3.426 0 0 0-.33-.33l-.08-.05a3.835 3.835 0 0 0-.76-.5h-.08a3.197 3.197 0 0 0-.43-.17h-.11a3.458 3.458 0 0 0-1-.17l-4.8-22.5a1.022 1.022 0 0 0-2 .42l4.81 22.49a4 4 0 0 0-1.41 1.18l-.07.09-.23.39c0 .049-.034.098-.07.15-.021.032-.044.065-.06.1-.05.114-.093.231-.13.35-.047.113-.084.23-.11.35 0 .068-.019.132-.038.197l-.01.031a.956.956 0 0 0-.022.092 1.54 1.54 0 0 0-.005.292c.003.056.005.114.005.168v.26c.002.252.029.503.08.75a4 4 0 0 0 4.75 3.07c.245-.05.483-.127.71-.23l.24-.12c.137-.066.27-.14.4-.22l.26-.19.28-.24.26-.27c.043-.043.078-.09.113-.135a3 3 0 0 0 .317-.455.41.41 0 0 0 0-.09 4 4 0 0 0 .51-1.78c.024-.335 0-.672-.07-1a3.931 3.931 0 0 0-.3-1.04ZM24.91 38a2 2 0 1 1-.83-3.915A2 2 0 0 1 24.91 38Z"/><path d="M9.501 12.045a1 1 0 0 1 .219-.325 1.001 1.001 0 0 1 1.42 0L14 14.59c-.514.424-.986.896-1.41 1.41l-2.87-2.86a1 1 0 0 1-.219-1.095ZM25 11.05V7a1 1 0 0 0-2 0v4.05c.164 0 .328-.012.492-.025.168-.012.337-.025.508-.025.34 0 .67 0 1 .05ZM37.955 11.501c.121.05.232.125.325.219a1.002 1.002 0 0 1 0 1.42L35.41 16A10.437 10.437 0 0 0 34 14.59l2.86-2.87a1 1 0 0 1 1.095-.219ZM7 23a1 1 0 0 0 0 2h5.05a6.58 6.58 0 0 0-.025-.492C12.013 24.34 12 24.17 12 24c0-.34 0-.67.05-1H7ZM37 23h4a1 1 0 0 1 0 2h-4c.05-.33.05-.66.05-1 0-.171-.013-.34-.025-.508A6.58 6.58 0 0 1 37 23Z"/><path fill-rule="evenodd" clip-rule="evenodd" d="M44 0H4a4 4 0 0 0-4 4v40a4 4 0 0 0 4 4h40a4 4 0 0 0 4-4V4a4 4 0 0 0-4-4Zm2 44a2 2 0 0 1-2 2H4a2 2 0 0 1-2-2V4a2 2 0 0 1 2-2h40a2 2 0 0 1 2 2v40Z"/></g><defs><clipPath id="a"><path fill="#fff" d="M0 0h48v48H0z"/></clipPath></defs></svg>