<svg width="48" height="48" fill="none" xmlns="http://www.w3.org/2000/svg"><path fill-rule="evenodd" clip-rule="evenodd" d="M11 8a5 5 0 1 0 0 10 5 5 0 0 0 0-10Zm0 8a3 3 0 1 1 0-6 3 3 0 0 1 0 6Z" fill="#000"/><path fill-rule="evenodd" clip-rule="evenodd" d="M4 4h40a4 4 0 0 1 4 4v10a4 4 0 0 1-4 4H4a4 4 0 0 1-4-4V8a4 4 0 0 1 4-4Zm41.414 15.414A2 2 0 0 0 46 18V8a2 2 0 0 0-2-2H4a2 2 0 0 0-2 2v10a2 2 0 0 0 2 2h40a2 2 0 0 0 1.414-.586ZM34.222 30.843a5 5 0 1 1 5.556 8.314 5 5 0 0 1-5.556-8.314Zm1.111 6.651a3 3 0 1 0 3.333-4.987 3 3 0 0 0-3.333 4.987Z" fill="#000"/><path fill-rule="evenodd" clip-rule="evenodd" d="M4 26h40a4 4 0 0 1 4 4v10a4 4 0 0 1-4 4H4a4 4 0 0 1-4-4V30a4 4 0 0 1 4-4Zm41.414 15.414A2 2 0 0 0 46 40V30a2 2 0 0 0-2-2H4a2 2 0 0 0-2 2v10a2 2 0 0 0 2 2h40a2 2 0 0 0 1.414-.586Z" fill="#000"/></svg>