<svg width="48" height="48" fill="none" xmlns="http://www.w3.org/2000/svg"><path fill-rule="evenodd" clip-rule="evenodd" d="m20.91 17.4-2-1.16V28l2-1.16 6.18-3.56 2-1.16-2-1.15-6.18-3.57Zm0 7.14v-4.83l4.18 2.41-4.18 2.42Z" fill="#000"/><path fill-rule="evenodd" clip-rule="evenodd" d="M44 4H4a4 4 0 0 0-4 4v28a4 4 0 0 0 4 4h40a4 4 0 0 0 4-4V8a4 4 0 0 0-4-4Zm2 32a2 2 0 0 1-2 2H4a2 2 0 0 1-2-2V8a2 2 0 0 1 2-2h40a2 2 0 0 1 2 2v28Z" fill="#000"/><path d="M11 42h26a1 1 0 0 1 0 2H11a1 1 0 0 1 0-2Z" fill="#000"/></svg>