<svg width="48" height="48" fill="none" xmlns="http://www.w3.org/2000/svg"><g clip-path="url(#a)" fill="#000"><path d="m23 3.41-7.49 7.49a1 1 0 1 1-1.41-1.42L23.29.29a1 1 0 0 1 1.42 0l9.19 9.19a1.001 1.001 0 1 1-1.41 1.42L25 3.41V29a1 1 0 0 1-2 0V3.41Z"/><path d="M30 16h6a4 4 0 0 1 4 4v24a4 4 0 0 1-4 4H12a4 4 0 0 1-4-4V20a4 4 0 0 1 4-4h6a1 1 0 0 1 0 2h-6a2 2 0 0 0-2 2v24a2 2 0 0 0 2 2h24a2 2 0 0 0 2-2V20a2 2 0 0 0-2-2h-6a1 1 0 0 1 0-2Z"/></g><defs><clipPath id="a"><path fill="#fff" d="M0 0h48v48H0z"/></clipPath></defs></svg>