<svg width="48" height="48" fill="none" xmlns="http://www.w3.org/2000/svg"><g clip-path="url(#a)" fill-rule="evenodd" clip-rule="evenodd" fill="#000"><path d="M31.466 20.864a8 8 0 0 1-3.236 3.916A12 12 0 0 1 36 36v2H12v-2a12 12 0 0 1 7.77-11.22 8 8 0 1 1 11.696-3.916ZM19.01 14.667a6 6 0 1 0 9.977 6.666 6 6 0 0 0-9.977-6.666ZM16.93 28.929A10 10 0 0 0 14 36h20a10 10 0 0 0-17.071-7.071Z"/><path d="M4 0h40a4 4 0 0 1 4 4v40a4 4 0 0 1-4 4H4a4 4 0 0 1-4-4V4a4 4 0 0 1 4-4Zm41.414 45.414A2 2 0 0 0 46 44V4a2 2 0 0 0-2-2H4a2 2 0 0 0-2 2v40a2 2 0 0 0 2 2h40a2 2 0 0 0 1.414-.586Z"/></g><defs><clipPath id="a"><path fill="#fff" d="M0 0h48v48H0z"/></clipPath></defs></svg>