<svg width="48" height="48" fill="none" xmlns="http://www.w3.org/2000/svg"><path fill-rule="evenodd" clip-rule="evenodd" d="M20.91 19.43 27.09 23l2 1.12-2 1.16-6.18 3.56-2 1.16V18.27l2 1.16Zm0 2.31v4.83l4.18-2.42-4.18-2.41Z" fill="#000"/><path fill-rule="evenodd" clip-rule="evenodd" d="M4 4h40a4 4 0 0 1 4 4v32a4 4 0 0 1-4 4H4a4 4 0 0 1-4-4V8a4 4 0 0 1 4-4Zm21 8h9V6h-9v6Zm-11 0h9V6h-9v6ZM2.586 6.586A2 2 0 0 0 2 8v4h10V6H4a2 2 0 0 0-1.414.586Zm0 34.828A2 2 0 0 0 4 42h8v-6H2v4a2 2 0 0 0 .586 1.414ZM23 36h-9v6h9v-6Zm11 0h-9v6h9v-6Zm11.414 5.414A2 2 0 0 0 46 40v-4H36v6h8a2 2 0 0 0 1.414-.586ZM2 34h44V14H2v20ZM36 6v6h10V8a2 2 0 0 0-2-2h-8Z" fill="#000"/></svg>