<svg width="48" height="48" fill="none" xmlns="http://www.w3.org/2000/svg"><path d="M44 6H9.44A4 4 0 0 0 6 8h38a2 2 0 0 1 2 2v26a4 4 0 0 0 2-3.44V10a4 4 0 0 0-4-4Z" fill="#000"/><path fill-rule="evenodd" clip-rule="evenodd" d="M29.778 22.674a4 4 0 1 1 4.444 6.653 4 4 0 0 1-4.444-6.653Zm1.11 4.989a2 2 0 1 0 2.223-3.324 2 2 0 0 0-2.222 3.324Z" fill="#000"/><path fill-rule="evenodd" clip-rule="evenodd" d="M40 10H4a4 4 0 0 0-4 4v24a4 4 0 0 0 4 4h36a4 4 0 0 0 4-4V14a4 4 0 0 0-4-4Zm2 28a2 2 0 0 1-2 2H4a2 2 0 0 1-2-2V14a2 2 0 0 1 2-2h36a2 2 0 0 1 2 2v24Z" fill="#000"/></svg>