<svg width="48" height="48" fill="none" xmlns="http://www.w3.org/2000/svg"><g clip-path="url(#a)" fill="#000"><path d="M40 2H8a4 4 0 0 1 3.45-2h25.1A4 4 0 0 1 40 2ZM43.44 6A4 4 0 0 0 40 4H8a4 4 0 0 0-3.44 2h38.88Z"/><path fill-rule="evenodd" clip-rule="evenodd" d="M44 8H4a4 4 0 0 0-4 4v32a4 4 0 0 0 4 4h40a4 4 0 0 0 4-4V12a4 4 0 0 0-4-4Zm2 36a2 2 0 0 1-2 2H4a2 2 0 0 1-2-2V12a2 2 0 0 1 2-2h40a2 2 0 0 1 2 2v32Z"/></g><defs><clipPath id="a"><path fill="#fff" d="M0 0h48v48H0z"/></clipPath></defs></svg>