<svg width="48" height="48" fill="none" xmlns="http://www.w3.org/2000/svg"><g clip-path="url(#a)" fill="#000"><path d="M12 0h32a4 4 0 0 1 4 4v32.56A4 4 0 0 1 46 40V4a2 2 0 0 0-2-2H8.56A4 4 0 0 1 12 0Z"/><path d="M40 4H8a4 4 0 0 0-3.44 2H40a2 2 0 0 1 2 2v36a4 4 0 0 0 2-3.44V8a4 4 0 0 0-4-4Z"/><path fill-rule="evenodd" clip-rule="evenodd" d="M36 8H4a4 4 0 0 0-4 4v32a4 4 0 0 0 4 4h32a4 4 0 0 0 4-4V12a4 4 0 0 0-4-4Zm2 36a2 2 0 0 1-2 2H4a2 2 0 0 1-2-2V12a2 2 0 0 1 2-2h32a2 2 0 0 1 2 2v32Z"/></g><defs><clipPath id="a"><path fill="#fff" d="M0 0h48v48H0z"/></clipPath></defs></svg>